<svg width="8" height="10" viewBox="0 0 8 10" fill="none" xmlns="http://www.w3.org/2000/svg">
<path d="M3.99753 4.76701e-08L3.90761 4.65978e-08C3.81171 0.00457864 3.7172 0.0248461 3.62784 0.0599995C3.55932 0.0867377 3.49529 0.123837 3.438 0.17C3.3924 0.196522 3.34896 0.226616 3.30811 0.26L0.310604 3.12C0.215475 3.21061 0.139109 3.31909 0.0858683 3.43924C0.0326273 3.55939 0.00355357 3.68886 0.00030622 3.82025C-0.0062521 4.08562 0.0927854 4.34272 0.275633 4.535C0.45848 4.72728 0.710158 4.83899 0.975302 4.84556C1.24044 4.85212 1.49733 4.753 1.68946 4.57L2.99837 3.34L2.99837 9C2.99837 9.26522 3.10364 9.51957 3.29102 9.70711C3.4784 9.89464 3.73254 10 3.99753 10C4.26253 10 4.51667 9.89464 4.70405 9.70711C4.89143 9.51957 4.9967 9.26522 4.9967 9L4.9967 3.41L6.28563 4.71C6.37851 4.80373 6.48902 4.87812 6.61078 4.92889C6.73254 4.97966 6.86314 5.0058 6.99504 5.0058C7.12694 5.0058 7.25754 4.97966 7.3793 4.92889C7.50105 4.87812 7.61156 4.80373 7.70445 4.71C7.7981 4.61704 7.87243 4.50644 7.92316 4.38458C7.97388 4.26272 8 4.13201 8 4C8 3.86799 7.97388 3.73728 7.92316 3.61542C7.87243 3.49356 7.7981 3.38296 7.70445 3.29L4.70694 0.290001C4.61487 0.20005 4.5063 0.128743 4.38721 0.08C4.26399 0.027463 4.13147 0.000257541 3.99753 4.76701e-08Z" fill="white"/>
</svg>
